<svg xmlns="http://www.w3.org/2000/svg" viewBox="0 0 24 24" role="img" aria-labelledby="googlePlayTitle">
  <title id="googlePlayTitle">Google Play</title>
  <path fill="#F3F0E9" d="M3.6 2.3c-.2.2-.3.5-.3.9v17.6c0 .4.1.7.3.9l10-9.7-10-9.7z"/>
  <path fill="#C9C2B2" d="M17.3 8.5 5.9 1.9c-.4-.2-.8-.2-1.1-.1l9.6 9.3 2.9-2.6z"/>
  <path fill="#C9C2B2" d="M17.3 15.5 14.4 12.9l-9.6 9.3c.3.1.7.1 1.1-.1l11.4-6.6z"/>
  <path fill="#9A9486" d="M20.4 10.7 17.3 8.9l-3.2 3.1 3.2 3.1 3.1-1.8c.9-.5.9-1.8 0-2.6z"/>
</svg>
